<?xml version="1.0" standalone="no"?>
<!DOCTYPE svg PUBLIC "-//W3C//DTD SVG 20010904//EN"
 "http://www.w3.org/TR/2001/REC-SVG-20010904/DTD/svg10.dtd">
<svg version="1.0" xmlns="http://www.w3.org/2000/svg"
 width="16.000000pt" height="16.000000pt" viewBox="0 0 16.000000 16.000000"
 preserveAspectRatio="xMidYMid meet">
<metadata>
Created by potrace 1.11, written by Peter Selinger 2001-2013
</metadata>
<g transform="translate(0.000000,16.000000) scale(0.002667,-0.002667)"
fill="#000000" stroke="none">
<path d="M2880 5891 c-30 -10 -122 -51 -205 -91 -230 -111 -393 -189 -470
-225 -38 -18 -137 -65 -220 -105 -148 -71 -274 -132 -470 -225 -258 -123 -378
-180 -470 -225 -55 -26 -156 -75 -225 -108 -227 -108 -263 -160 -335 -482 -14
-63 -28 -124 -30 -135 -3 -11 -7 -30 -10 -42 -3 -13 -7 -33 -10 -45 -3 -13
-21 -93 -41 -178 -20 -85 -37 -162 -39 -170 -2 -8 -24 -105 -50 -215 -25 -110
-48 -209 -50 -220 -3 -11 -32 -137 -65 -280 -34 -143 -63 -271 -66 -285 -8
-43 -75 -331 -79 -343 -3 -7 -6 -23 -9 -37 -2 -14 -9 -45 -16 -70 -28 -101
-17 -225 25 -310 14 -27 270 -356 339 -437 14 -16 -10 14 321 -398 475 -592
431 -537 567 -705 51 -63 125 -155 163 -204 136 -173 200 -226 310 -255 27 -7
433 -11 1261 -11 1182 0 1223 1 1277 19 74 26 136 69 184 129 21 26 40 49 43
52 3 3 24 28 45 55 22 28 42 52 45 55 3 3 30 37 60 75 30 39 60 77 67 85 8 8
37 44 65 80 28 36 53 67 57 70 4 3 58 70 121 150 63 80 117 147 120 150 3 3
30 37 60 75 30 39 57 72 60 75 3 3 32 39 65 80 32 41 64 80 70 86 5 7 21 26
35 44 14 18 48 60 75 94 28 33 60 73 70 87 11 15 111 139 221 276 233 289 247
315 247 453 0 56 -8 114 -22 170 -13 47 -25 96 -27 110 -3 14 -13 61 -24 105
-28 117 -74 318 -115 500 -20 88 -45 198 -56 245 -37 154 -40 165 -44 188 -9
43 -15 68 -30 132 -31 131 -75 319 -110 475 -20 88 -49 215 -66 283 -16 67
-29 127 -29 133 0 34 -68 145 -114 186 -49 44 -77 59 -416 220 -52 25 -156 75
-230 111 -74 35 -171 81 -215 102 -76 36 -290 138 -455 218 -41 20 -77 37 -80
38 -3 0 -68 31 -145 68 -77 38 -167 81 -200 96 -33 15 -145 69 -250 120 -261
126 -246 121 -355 126 -55 3 -90 -1 -130 -15z"/>
</g>
</svg>
