<?xml version="1.0" standalone="no"?>
<!DOCTYPE svg PUBLIC "-//W3C//DTD SVG 20010904//EN"
 "http://www.w3.org/TR/2001/REC-SVG-20010904/DTD/svg10.dtd">
<svg version="1.0" xmlns="http://www.w3.org/2000/svg"
 width="300.000000pt" height="300.000000pt" viewBox="0 0 300.000000 300.000000"
 preserveAspectRatio="xMidYMid meet">
<metadata>
Created by potrace 1.14, written by Peter Selinger 2001-2017
</metadata>
<g transform="translate(0.000000,300.000000) scale(0.100000,-0.100000)"
fill="#000000" stroke="none">
<path d="M1450 2910 c-31 -9 -109 -45 -325 -150 -93 -45 -206 -99 -250 -120
-44 -21 -147 -70 -230 -110 -82 -40 -177 -85 -210 -100 -96 -45 -130 -88 -150
-190 -2 -8 -13 -55 -24 -105 -20 -83 -27 -114 -36 -155 -2 -8 -16 -67 -31
-130 -14 -63 -34 -151 -44 -195 -14 -61 -105 -463 -113 -494 0 -3 2 -26 6 -51
7 -42 61 -122 165 -245 9 -11 33 -40 52 -65 19 -25 40 -51 48 -58 7 -8 25 -30
40 -50 15 -21 29 -39 32 -42 4 -3 33 -39 65 -80 71 -90 70 -88 98 -123 13 -15
75 -92 137 -171 122 -153 158 -185 218 -195 20 -4 300 -6 622 -6 584 1 585 1
630 23 38 19 99 90 410 478 201 251 373 473 383 493 19 41 18 97 -7 202 -17
71 -56 245 -61 269 -2 8 -8 33 -13 55 -6 22 -13 51 -15 65 -3 14 -26 114 -51
223 -25 109 -48 208 -50 220 -15 76 -50 205 -61 227 -29 55 -30 55 -530 295
-66 31 -167 80 -225 108 -58 28 -107 52 -110 52 -3 1 -63 29 -134 64 -128 62
-185 77 -236 61z"/>
</g>
</svg>
